<?xml version="1.0" encoding="UTF-8" standalone="no"?>
<svg
   xmlns:dc="http://purl.org/dc/elements/1.1/"
   xmlns:cc="http://creativecommons.org/ns#"
   xmlns:rdf="http://www.w3.org/1999/02/22-rdf-syntax-ns#"
   xmlns:svg="http://www.w3.org/2000/svg"
   xmlns="http://www.w3.org/2000/svg"
   xmlns:sodipodi="http://sodipodi.sourceforge.net/DTD/sodipodi-0.dtd"
   xmlns:inkscape="http://www.inkscape.org/namespaces/inkscape"
   id="svg2"
   gorn="0"
   viewBox="0 0 262.59801 680.31544"
   height="0.68031543in"
   width="0.26259801in"
   version="1.2"
   y="0in"
   x="0in"
   sodipodi:docname="breadboard.svg"
   inkscape:version="1.0.2-2 (e86c870879, 2021-01-15)">
  <sodipodi:namedview
     pagecolor="#ffffff"
     bordercolor="#666666"
     borderopacity="1"
     objecttolerance="10"
     gridtolerance="10"
     guidetolerance="10"
     inkscape:pageopacity="0"
     inkscape:pageshadow="2"
     inkscape:window-width="1765"
     inkscape:window-height="930"
     id="namedview3958"
     showgrid="false"
     inkscape:zoom="6.5263892"
     inkscape:cx="-43.655744"
     inkscape:cy="41.116904"
     inkscape:window-x="47"
     inkscape:window-y="18"
     inkscape:window-maximized="0"
     inkscape:current-layer="g1864"
     inkscape:snap-bbox="true"
     inkscape:bbox-paths="false"
     inkscape:bbox-nodes="false"
     showguides="true"
     inkscape:snap-page="false"
     inkscape:pagecheckerboard="false"
     fit-margin-top="0"
     fit-margin-left="0"
     fit-margin-right="0"
     fit-margin-bottom="0"
     inkscape:document-rotation="0" />
  <metadata
     id="metadata39">
    <rdf:RDF>
      <cc:Work
         rdf:about="">
        <dc:format>image/svg+xml</dc:format>
        <dc:type
           rdf:resource="http://purl.org/dc/dcmitype/StillImage" />
        <dc:title></dc:title>
      </cc:Work>
    </rdf:RDF>
  </metadata>
  <defs
     id="defs37" />
  <desc
     id="desc4">
    <referenceFile>svg.breadboard.prefix0000_0b07b3d7a210f13903e034027aebe56d_1_breadboard.svg</referenceFile>
  </desc>
  <g
     id="g5806"
     inkscape:label="breadboard"
     style="display:inline"
     transform="rotate(-90,297.52532,798.68632)">
    <g
       transform="translate(-786.81055,372.73387)"
       id="g5804"
       style="display:inline">
      <path
         fill="#8c8c8c"
         d="m 1212.719,314.04338 c 0,-7.05569 9.4456,-12.77722 21.0938,-12.77722 h 347.5394 c 11.6482,0 21.0938,5.72153 21.0938,12.77722 0,7.0557 -9.4456,12.77722 -21.0938,12.77722 h -347.5394 c -11.6482,0 -21.0938,-5.72152 -21.0938,-12.77722 z"
         gorn="0.3.240.0.0.0.0"
         id="path5770-4"
         style="display:inline;stroke-width:10.9887" />
      <path
         fill="#8c8c8c"
         d="m 1212.8955,210.01359 c 0,-7.05569 9.4456,-12.77722 21.0938,-12.77722 h 347.5394 c 11.6482,0 21.0938,5.72153 21.0938,12.77722 0,7.0557 -9.4456,12.77722 -21.0938,12.77722 h -347.5394 c -11.6482,0 -21.0938,-5.72152 -21.0938,-12.77722 z"
         gorn="0.3.240.0.0.0.0"
         id="path5770"
         style="stroke-width:10.9887" />
      <path
         fill="#ffffff"
         transform="matrix(0,8.552357,-8.615022,0,1879.4099,135.23157)"
         d="m 19.053,6.884 2.635,-0.5 C 20.142,4.308 17.869,2.795 15.192,2.28 l 0.467,1.982 c 1.397,0.495 2.576,1.429 3.394,2.622 z"
         gorn="0.3.240.0.4.0.10.0"
         id="path5798" />
      <path
         fill="#ffffff"
         transform="matrix(0,8.552357,-8.615022,0,1879.4099,135.23157)"
         d="m 20.308,37.064 c -0.467,0.224 -0.972,0.421 -1.478,0.604 -0.109,0.037 -0.215,0.073 -0.327,0.105 -1.033,0.329 -2.13,0.586 -3.292,0.727 -0.137,0.018 -0.276,0.037 -0.413,0.037 -0.586,0.053 -1.181,0.106 -1.78,0.106 -0.271,0 -0.563,-0.028 -0.866,-0.043 C 9.953,38.496 7.879,38.024 6.106,37.246 V 21.86 13.005 C 6.106,10.308 7.662,8 9.91,6.864 L 9.87,6.764 7.58,3.992 C 4.518,5.831 2.466,9.169 2.466,13.002 V 34.835 C 2.374,34.745 1.899,34.27 1.585,33.863 L 1.02,35.125 c 2.569,2.717 6.986,4.517 12,4.517 3.081,0 5.938,-0.687 8.271,-1.841 l -0.963,-0.748 c -0.02,0.011 -0.02,0.011 -0.02,0.011 z"
         gorn="0.3.240.0.4.0.12.0"
         id="path5802" />
      <rect
         style="fill:#000000;stroke:#000000;stroke-width:10.4167"
         id="rect3957"
         width="252.18132"
         height="419.77017"
         x="133.63548"
         y="-1877.8138"
         transform="rotate(90)"
         ry="10.316823" />
    </g>
  </g>
  <rect
     stroke-width="0"
     fill="none"
     x="-673.76239"
     gorn="0.1.4"
     id="connector0terminal"
     height="9.7222004"
     y="179.52539"
     width="10"
     transform="rotate(-90)" />
  <rect
     stroke-width="0"
     fill="none"
     x="-680.31543"
     gorn="0.1.4"
     id="connector0terminal-7"
     height="9.7222004"
     y="76.870544"
     width="10"
     transform="rotate(-90)" />
  <g
     transform="matrix(10.416667,0,0,10.416667,-453.13816,266.89524)"
     id="g1864">
    <g
       id="g1862"
       transform="translate(2,8)"
       style="fill:#ffffff">
      <g
         id="g1860"
         style="fill:#ffffff">
        <g
           text-anchor="start"
           height="5"
           fill-opacity="0.426667"
           text-align="left"
           stroke-miterlimit="3"
           font-weight="bold"
           fill="#000000"
           type="textBox"
           font-family="'Droid Sans'"
           width="27.27465074063366"
           stroke="none"
           stroke-width="10"
           font-size="4px"
           id="g1858"
           style="fill:#ffffff">
          <text
             x="-4.4820762"
             y="57.891178"
             id="text1856"
             style="font-size:9.33333px;fill:#ffffff"
             transform="rotate(-90)">SW520D</text>
        </g>
      </g>
    </g>
  </g>
</svg>
